PathFileType	4	(X/Y/Z)	output.trc
DataRate	CameraRate	NumFrames	NumMarkers	Units	OrigDataRate	OrigDataStartFrame	OrigNumFrames
200	200	4	66	mm	200	37	295
Frame#	Time			LASI			RASI			RSACR			LSACR			USACR			LBAR			RBAR			RHEE			RMT1			RMT5			RMT2			LHEE			LMT1			LMT5			LMT2			LMMAL			LMFC			LLFC			LLMAL			LTIB4			LTIB2			LTIB3			LTIB1			RMMAL			RMFC			RLFC			RLMAL			RTIB1			RTIB2			RTIB3			RTHI1			RTHI4			RTHI3			RTHI2			LTHI1			LTHI4			LTHI3			LTHI2			FHD			LBHD			RBHD			C7			T10			CLAV			LSHO			RSHO			LRAD			LUL			LRFIN			RRAD			RUL			RUFIN			RLEP			RMEP			LLEP			LMEP			LDUPA			LMUPA			LUUPA			RDUPA			RUUPA			RMUPA			RKJC			LKJC			LAKJC			RAKJC
		X1	Y1	Z1	X2	Y2	Z2	X3	Y3	Z3	X4	Y4	Z4	X5	Y5	Z5	X6	Y6	Z6	X7	Y7	Z7	X8	Y8	Z8	X9	Y9	Z9	X10	Y10	Z10	X11	Y11	Z11	X12	Y12	Z12	X13	Y13	Z13	X14	Y14	Z14	X15	Y15	Z15	X16	Y16	Z16	X17	Y17	Z17	X18	Y18	Z18	X19	Y19	Z19	X20	Y20	Z20	X21	Y21	Z21	X22	Y22	Z22	X23	Y23	Z23	X24	Y24	Z24	X25	Y25	Z25	X26	Y26	Z26	X27	Y27	Z27	X28	Y28	Z28	X29	Y29	Z29	X30	Y30	Z30	X31	Y31	Z31	X32	Y32	Z32	X33	Y33	Z33	X34	Y34	Z34	X35	Y35	Z35	X36	Y36	Z36	X37	Y37	Z37	X38	Y38	Z38	X39	Y39	Z39	X40	Y40	Z40	X41	Y41	Z41	X42	Y42	Z42	X43	Y43	Z43	X44	Y44	Z44	X45	Y45	Z45	X46	Y46	Z46	X47	Y47	Z47	X48	Y48	Z48	X49	Y49	Z49	X50	Y50	Z50	X51	Y51	Z51	X52	Y52	Z52	X53	Y53	Z53	X54	Y54	Z54	X55	Y55	Z55	X56	Y56	Z56	X57	Y57	Z57	X58	Y58	Z58	X59	Y59	Z59	X60	Y60	Z60	X61	Y61	Z61	X62	Y62	Z62	X63	Y63	Z63	X64	Y64	Z64	X65	Y65	Z65	X66	Y66	Z66
36	0.180000	134.649170	762.318115	918.146362	130.075500	984.601318	918.659424	309.949371	912.643494	950.439148	309.215637	852.746826	953.687134	298.301971	882.595825	966.813049	1270.800049	-346.503174	26.321119	1226.409302	1876.951538	26.304098	323.059998	1019.657898	39.812527	128.150406	1043.321899	43.441929	165.062943	1113.662476	34.811481	140.175674	1079.969849	42.689041	326.268250	745.130371	45.802990	134.388641	736.455933	46.334469	170.012024	662.783875	33.381718	143.174347	698.035278	45.916889	276.702698	778.667053	72.943123	233.457855	829.120056	456.927917	219.996735	721.443359	454.043304	278.819153	700.947205	69.133163	290.606995	691.528381	209.609741	314.316895	691.527283	270.874878	263.792816	684.479004	268.186859	301.733582	687.544312	314.207642	275.186737	994.117798	68.349312	235.884171	935.434265	446.594543	221.113174	1041.329712	461.400238	284.697906	1068.613525	72.226639	257.428375	1082.749512	319.322144	307.881653	1077.243164	313.999817	276.837280	1081.413696	256.170441	242.388245	1060.131348	783.969543	243.274094	1064.848877	635.135742	192.000977	1066.701416	637.134949	219.710831	1070.213989	697.258972	239.582855	698.968323	779.032776	237.422775	695.425720	646.643616	186.827164	693.133667	637.613708	201.343842	689.423950	701.327332	130.620575	775.233887	1593.133789	241.392151	786.251099	1575.980103	252.931305	909.733643	1571.433472	262.926178	857.672913	1391.470337	286.293427	877.687439	1007.770508	140.343140	872.687439	1328.739136	244.141083	724.714844	1380.915161	236.383224	986.673340	1397.152222	163.898117	222.566330	1357.419067	204.516876	222.075302	1353.071777	150.408508	130.658707	1336.880859	240.965164	1500.542114	1389.573120	287.862000	1499.665649	1383.480835	235.243103	1590.703125	1391.842163	293.209351	1271.208740	1330.287354	255.016327	1271.746216	1296.660034	220.071518	453.853821	1299.948975	179.212891	466.723694	1277.534912	236.314407	505.774414	1353.774536	200.448227	536.359131	1371.368896	237.599899	584.954041	1362.371460	266.033997	1205.647095	1382.736206	256.718201	1143.935791	1384.400269	215.801270	1212.215332	1385.666260	228.498672	988.381958	453.997375	226.727295	775.281738	455.485596	277.760925	739.807129	71.038147	279.942322	1031.365723	70.287979
37	0.185000	134.634476	762.322083	918.151245	130.056747	984.600525	918.655273	309.930664	912.651184	950.439392	309.194366	852.756592	953.685242	298.274628	882.607178	966.807861	1270.792969	-346.495667	26.324051	1226.431641	1876.971191	26.293468	323.050690	1019.649353	39.820206	128.145172	1043.317993	43.447815	165.060989	1113.668091	34.817528	140.174805	1079.965088	42.685558	326.268219	745.146973	45.803581	134.390121	736.456604	46.338425	169.993820	662.780884	33.401546	143.175659	698.035278	45.917782	276.715088	778.656982	72.948654	233.445572	829.126343	456.927338	219.994308	721.450623	454.044556	278.815552	700.946899	69.131874	290.600555	691.529602	209.618576	314.256775	691.346680	271.199066	263.783600	684.488892	268.184296	301.737610	687.549683	314.213928	275.190369	994.112915	68.349915	235.873444	935.440491	446.590820	221.105850	1041.327637	461.397003	284.696442	1068.625732	72.229256	257.429108	1082.758545	319.329346	307.882111	1077.236694	314.004761	276.837524	1081.408447	256.181854	242.367218	1060.139648	783.969727	243.271729	1064.855103	635.155212	191.994675	1066.705811	637.122375	219.812546	1070.151001	697.126404	239.586777	698.972046	779.040588	237.409805	695.431946	646.662842	186.792465	693.141357	637.602295	201.333481	689.433899	701.320312	130.590363	775.221924	1593.103516	241.339066	786.241272	1575.986816	252.884659	909.723694	1571.445557	262.914154	857.667480	1391.475220	286.271851	877.700195	1007.770081	140.323883	872.685730	1328.743164	244.126633	724.706482	1380.941284	236.362076	986.666260	1397.153442	163.881165	222.505737	1357.593994	204.490814	222.084106	1353.088501	150.379440	130.653671	1336.924438	240.917770	1500.543091	1389.615967	287.827179	1499.650146	1383.535645	235.199310	1590.702637	1391.892822	293.184052	1271.211914	1330.317871	254.997101	1271.750732	1296.688232	220.069061	453.855743	1299.957520	179.201431	466.729919	1277.549194	236.302979	505.766846	1353.782471	200.443329	536.361023	1371.369507	237.577896	584.947815	1362.405273	266.006470	1205.655640	1382.751953	256.696533	1143.931885	1384.408691	215.811188	1212.152710	1385.592529	228.489655	988.384033	453.993896	226.719940	775.288452	455.485962	277.765320	739.801941	71.040268	279.943420	1031.369385	70.289581
38	0.190000	134.609207	762.326050	918.154236	130.047501	984.608337	918.651123	309.906372	912.648010	950.447815	309.176880	852.755371	953.691650	298.245087	882.608276	966.809387	1270.797363	-346.507111	26.334190	1226.424927	1876.966309	26.299862	323.057404	1019.662659	39.817924	128.152039	1043.330078	43.459202	165.058502	1113.675781	34.821224	140.174454	1079.967773	42.690483	326.268433	745.142517	45.807674	134.392944	736.455261	46.344852	169.986603	662.778198	33.398418	143.176743	698.034912	45.921688	276.721161	778.657959	72.954094	233.425278	829.138245	456.932037	219.984024	721.459412	454.054382	278.812744	700.951355	69.141777	290.607605	691.528931	209.623016	314.251770	691.346436	271.191650	263.795563	684.485657	268.200745	301.924591	687.354858	314.294006	275.187042	994.102234	68.356018	235.867996	935.436646	446.593933	221.106537	1041.330200	461.391632	284.699677	1068.619141	72.231766	257.430725	1082.745483	319.332611	307.873230	1077.234619	314.014923	276.857025	1081.409912	256.171173	242.353348	1060.148682	783.976013	243.283844	1064.836304	635.147400	191.973175	1066.682861	637.116638	219.817993	1070.151489	697.128296	239.560165	698.977417	779.038208	237.400391	695.425476	646.661194	186.777237	693.132996	637.600281	201.310287	689.426636	701.322876	130.531235	775.217102	1593.101807	241.262924	786.234558	1575.984863	252.832809	909.718079	1571.463379	262.892578	857.675415	1391.480957	286.245148	877.713318	1007.771057	140.323792	872.697327	1328.748291	244.123428	724.709106	1380.954468	236.346832	986.661194	1397.151123	163.858078	222.524323	1357.630371	204.461807	222.098282	1353.117554	150.363617	130.671753	1336.968628	240.870071	1500.537231	1389.666260	287.782440	1499.641602	1383.582642	235.164932	1590.700439	1391.945923	293.165955	1271.197021	1330.339111	254.965469	1271.765015	1296.716675	220.052048	453.861877	1299.973145	179.187439	466.726746	1277.565552	236.294189	505.770630	1353.780884	200.441132	536.370483	1371.376709	237.566635	584.952332	1362.416504	265.980713	1205.634033	1382.772339	256.670807	1143.916748	1384.418701	215.777985	1212.149292	1385.612427	228.487274	988.383423	453.992798	226.704651	775.298828	455.493225	277.766968	739.804688	71.047935	279.943359	1031.360718	70.293892
39	0.195000	134.587357	762.330017	918.147949	130.024521	984.615417	918.652893	309.881378	912.655640	950.438660	309.146759	852.755737	953.688477	298.231842	882.607117	966.816895	1270.802368	-346.491547	26.336073	1226.434692	1876.972046	26.292570	323.051788	1019.670349	39.820244	128.149063	1043.327881	43.459606	165.047745	1113.670044	34.817547	140.179672	1079.962891	42.685802	326.274261	745.152344	45.801357	134.386353	736.454773	46.342819	169.974014	662.776123	33.417080	143.170883	698.029480	45.922081	276.715393	778.654236	72.954445	233.413498	829.140381	456.937866	219.963196	721.464478	454.044098	278.824951	700.950745	69.144844	290.600830	691.527283	209.623352	314.291718	691.539062	270.942505	263.782684	684.493958	268.197021	301.917572	687.365417	314.292419	275.189240	994.104431	68.355148	235.850403	935.432983	446.591766	221.086075	1041.335083	461.402527	284.700073	1068.609741	72.231911	257.418091	1082.757935	319.326874	307.874054	1077.234009	314.014648	276.849701	1081.418335	256.175110	242.335571	1060.155029	783.975586	243.257233	1064.864502	635.152710	191.969574	1066.682861	637.117126	219.776291	1070.171753	697.130554	239.540894	698.974365	779.041077	237.407700	695.439148	646.669617	186.755524	693.127625	637.604980	201.310043	689.447266	701.318970	130.486954	775.208313	1593.093628	241.213821	786.234131	1575.992798	252.782913	909.707336	1571.473877	262.869843	857.669250	1391.479370	286.224884	877.718018	1007.772095	140.318817	872.689636	1328.738647	244.136093	724.703186	1380.979858	236.321503	986.661316	1397.152222	163.837936	222.536316	1357.675049	204.470016	222.093369	1353.165039	150.347809	130.667450	1337.027222	240.832123	1500.537598	1389.717163	287.739044	1499.624756	1383.632568	235.125244	1590.695801	1391.990601	293.154510	1271.210571	1330.372314	254.940384	1271.766479	1296.736572	220.041428	453.856567	1299.978271	179.184784	466.725983	1277.579346	236.284637	505.779083	1353.778687	200.403885	536.378174	1371.392334	237.629318	584.918701	1362.387939	265.960358	1205.634155	1382.782104	256.656403	1143.917114	1384.421753	215.718323	1212.205811	1385.724121	228.468231	988.384033	453.997131	226.688354	775.302429	455.490967	277.770172	739.802490	71.049644	279.944641	1031.357056	70.293533
